<svg width="106" height="89" viewBox="0 0 106 89" fill="none" xmlns="http://www.w3.org/2000/svg">
<path d="M0.00117336 38.5152C-0.107831 45.8422 7.41345 46.2732 7.74047 46.812L5.56038 80.5C5.5 82 14.0627 82 14.0627 80.5L12.6456 46.812C14.8621 46.3091 19.4039 44.5707 19.8399 41.6399C20.4939 35.2826 18.9679 12.0085 18.4229 10.931C18.1237 10.3396 16.2428 10.5 16.2428 10.931V36.7911H14.0627V10.931C14.0627 10.7155 13.6921 10.5 12.6456 10.5C11.5992 10.5 11.1196 10.7155 11.1196 10.931L11.3376 36.7911H9.04851V10.931C9.04851 10.7155 8.7869 10.5 7.74046 10.5C6.69402 10.5 6.3225 10.7155 6.32341 10.931C6.35974 19.5151 6.21441 36.3601 6.21441 36.7911C6.21441 36.7911 4.47034 36.8989 4.14333 36.7911C4.14333 36.7911 3.92532 11.4129 3.92532 10.931C3.92532 10.5 2.0343 10.4627 1.96325 10.931C1.63623 13.086 0.110177 31.1881 0.00117336 38.5152Z" fill="#00B87B"/>
<path d="M100.405 51.6951V78.7245C100.405 79.3459 100.657 79.9418 101.105 80.3812C101.554 80.8205 102.162 81.0674 102.796 81.0674C103.431 81.0674 104.039 80.8205 104.487 80.3812C104.936 79.9418 105.188 79.3459 105.188 78.7245V12.4913C105.188 11.8699 104.936 11.274 104.487 10.8346C104.039 10.3953 103.431 10.1484 102.796 10.1484C99.6249 10.1484 96.6592 11.676 94.5258 13.7611C92.3973 15.851 90.8379 18.7561 90.8379 21.8627V49.3522C90.8379 49.9736 91.0899 50.5695 91.5384 51.0089C91.9869 51.4483 92.5952 51.6951 93.2296 51.6951H100.405Z" fill="#00B87B"/>
<path d="M54.6271 24L36.1771 56.8H73.0771L54.6271 24Z" fill="#1D3752"/>
<path fill-rule="evenodd" clip-rule="evenodd" d="M54.6271 85.5C77.2708 85.5 95.6271 67.1437 95.6271 44.5C95.6271 21.8563 77.2708 3.5 54.6271 3.5C31.9835 3.5 13.6271 21.8563 13.6271 44.5C13.6271 67.1437 31.9835 85.5 54.6271 85.5ZM54.6271 75.25C71.6099 75.25 85.3771 61.4828 85.3771 44.5C85.3771 27.5172 71.6099 13.75 54.6271 13.75C37.6444 13.75 23.8771 27.5172 23.8771 44.5C23.8771 61.4828 37.6444 75.25 54.6271 75.25Z" fill="#1D3752"/>
<path fill-rule="evenodd" clip-rule="evenodd" d="M31.2445 59.45L54.6271 17.8808L78.0098 59.45C80.7743 55.1352 82.3771 50.0048 82.3771 44.5C82.3771 29.1741 69.953 16.75 54.6271 16.75C39.3012 16.75 26.8771 29.1741 26.8771 44.5C26.8771 50.0048 28.48 55.1352 31.2445 59.45ZM31.4724 59.8C36.4397 67.3023 44.9556 72.25 54.6271 72.25C64.2986 72.25 72.8146 67.3023 77.7819 59.8H31.4724ZM98.6271 44.5C98.6271 68.8005 78.9277 88.5 54.6271 88.5C30.3266 88.5 10.6271 68.8005 10.6271 44.5C10.6271 20.1995 30.3266 0.5 54.6271 0.5C78.9277 0.5 98.6271 20.1995 98.6271 44.5ZM36.1771 56.8H73.0771L54.6271 24L36.1771 56.8ZM95.6271 44.5C95.6271 67.1437 77.2708 85.5 54.6271 85.5C31.9835 85.5 13.6271 67.1437 13.6271 44.5C13.6271 21.8563 31.9835 3.5 54.6271 3.5C77.2708 3.5 95.6271 21.8563 95.6271 44.5ZM85.3771 44.5C85.3771 61.4828 71.6099 75.25 54.6271 75.25C37.6444 75.25 23.8771 61.4828 23.8771 44.5C23.8771 27.5172 37.6444 13.75 54.6271 13.75C71.6099 13.75 85.3771 27.5172 85.3771 44.5Z" fill="white"/>
</svg>
